<svg width="188" height="144" viewBox="0 0 188 144" fill="none" xmlns="http://www.w3.org/2000/svg">
<g filter="url(#filter0_d_1224_888)">
<mask id="path-1-inside-1_1224_888" fill="white">
<path d="M36 44C36 32.9543 44.9543 24 56 24H132C143.046 24 152 32.9543 152 44V76C152 87.0457 143.046 96 132 96H56C44.9543 96 36 87.0457 36 76V44Z"/>
</mask>
<path d="M36 44C36 32.9543 44.9543 24 56 24H132C143.046 24 152 32.9543 152 44V76C152 87.0457 143.046 96 132 96H56C44.9543 96 36 87.0457 36 76V44Z" fill="white"/>
<path d="M56 25H132V23H56V25ZM151 44V76H153V44H151ZM132 95H56V97H132V95ZM37 76V44H35V76H37ZM56 95C45.5066 95 37 86.4934 37 76H35C35 87.598 44.402 97 56 97V95ZM151 76C151 86.4934 142.493 95 132 95V97C143.598 97 153 87.598 153 76H151ZM132 25C142.493 25 151 33.5066 151 44H153C153 32.402 143.598 23 132 23V25ZM56 23C44.402 23 35 32.402 35 44H37C37 33.5066 45.5066 25 56 25V23Z" fill="#EAEDF0" mask="url(#path-1-inside-1_1224_888)"/>
<rect x="48" y="36" width="92" height="48" rx="6.66667" fill="#388FF3"/>
<rect x="52.3337" y="40.3329" width="83.3333" height="39.3333" rx="3" stroke="white" stroke-width="3.33333"/>
<path d="M75.616 54.424L68.344 68.44H64L70.576 55.84H64V52H75.616V54.424Z" fill="white"/>
<path d="M89.2098 54.424L81.9378 68.44H77.5938L84.1698 55.84H77.5938V52H89.2098V54.424Z" fill="white"/>
<path d="M92.0515 65.32C92.4675 64.952 92.9795 64.768 93.5875 64.768C94.1955 64.768 94.7075 64.952 95.1235 65.32C95.5555 65.688 95.7715 66.144 95.7715 66.688C95.7715 67.232 95.5555 67.688 95.1235 68.056C94.7075 68.424 94.1955 68.608 93.5875 68.608C92.9795 68.608 92.4675 68.424 92.0515 68.056C91.6355 67.688 91.4275 67.232 91.4275 66.688C91.4275 66.144 91.6355 65.688 92.0515 65.32Z" fill="white"/>
<path d="M110.584 68.44H108.136L107.848 67C107.032 68.072 105.776 68.608 104.08 68.608C102.368 68.608 101.064 68.072 100.168 67C99.2724 65.928 98.8244 64.496 98.8244 62.704V56.44H102.568V62.488C102.568 64.152 103.272 64.984 104.68 64.984C106.12 64.984 106.84 64.128 106.84 62.416V56.44H110.584V68.44Z" fill="white"/>
<path d="M123.726 68.44H113.646L113.67 65.536L118.23 60.064H113.982V56.44H123.51L123.486 59.344L118.926 64.816H123.726V68.44Z" fill="white"/>
</g>
<defs>
<filter id="filter0_d_1224_888" x="0" y="0" width="188" height="144" filterUnits="userSpaceOnUse" color-interpolation-filters="sRGB">
<feFlood flood-opacity="0" result="BackgroundImageFix"/>
<feColorMatrix in="SourceAlpha" type="matrix" values="0 0 0 0 0 0 0 0 0 0 0 0 0 0 0 0 0 0 127 0" result="hardAlpha"/>
<feOffset dy="12"/>
<feGaussianBlur stdDeviation="18"/>
<feComposite in2="hardAlpha" operator="out"/>
<feColorMatrix type="matrix" values="0 0 0 0 0.054902 0 0 0 0 0.0666667 0 0 0 0 0.0862745 0 0 0 0.1 0"/>
<feBlend mode="normal" in2="BackgroundImageFix" result="effect1_dropShadow_1224_888"/>
<feBlend mode="normal" in="SourceGraphic" in2="effect1_dropShadow_1224_888" result="shape"/>
</filter>
</defs>
</svg>
