<svg width="20" height="20" viewBox="0 0 20 20" fill="none" xmlns="http://www.w3.org/2000/svg">
<path d="M17.2197 15.6425C17.2197 15.6425 16.2541 16.5909 16.0175 16.8689C15.6321 17.2802 15.1779 17.4745 14.5825 17.4745C14.5253 17.4745 14.4642 17.4745 14.407 17.4706C13.2735 17.3983 12.2202 16.9565 11.4302 16.5794C9.27009 15.5359 7.37333 14.0543 5.79715 12.1767C4.49576 10.6113 3.62561 9.16405 3.04933 7.61014C2.69441 6.66179 2.56465 5.92292 2.6219 5.22594C2.66006 4.78034 2.8318 4.4109 3.14856 4.09479L4.44996 2.79605C4.63696 2.62085 4.83542 2.52563 5.03005 2.52563C5.27049 2.52563 5.46513 2.67036 5.58725 2.79224C5.59107 2.79605 5.59488 2.79986 5.5987 2.80366C5.8315 3.02076 6.05285 3.24546 6.28565 3.48541C6.40396 3.60728 6.52609 3.72916 6.64821 3.85484L7.6901 4.89459C8.09464 5.29831 8.09464 5.67155 7.6901 6.07527C7.57942 6.18572 7.47256 6.29617 7.36188 6.40281C7.0413 6.73035 7.29314 6.47903 6.96111 6.7761C6.95348 6.78372 6.94584 6.78753 6.94203 6.79514C6.61382 7.12268 6.67488 7.44261 6.74357 7.6597C6.74739 7.67113 6.75121 7.68255 6.75502 7.69398C7.02599 8.34906 7.40763 8.96605 7.98772 9.70112L7.99154 9.70493C9.04487 10.9999 10.1554 12.0091 11.3805 12.7823C11.537 12.8813 11.6973 12.9613 11.8499 13.0375C11.9873 13.106 12.1171 13.1708 12.2278 13.2393C12.243 13.2469 12.2583 13.2584 12.2736 13.266C12.4033 13.3307 12.5254 13.3612 12.6514 13.3612C12.9681 13.3612 13.1666 13.1632 13.2315 13.0984L13.9795 12.3519C14.1093 12.2224 14.3154 12.0662 14.5558 12.0662C14.7924 12.0662 14.9871 12.2148 15.1054 12.3442C15.1092 12.3481 15.1092 12.3481 15.113 12.3519L17.2159 14.4504C17.609 14.8389 17.2197 15.6425 17.2197 15.6425Z" stroke="#B8BBBD" stroke-width="1.5" stroke-linecap="round" stroke-linejoin="round"/>
</svg>
